HIERARCHY
ROOT Hips
{
	OFFSET -0.179506 -22.333345 2.821913
	CHANNELS 6 Xposition Yposition Zposition Zrotation Yrotation Xrotation 
	JOINT LeftUpLeg
	{
		OFFSET 6.951974 -9.140623 -0.681533
		CHANNELS 3 Zrotation Yrotation Xrotation
		JOINT LeftLeg
		{
			OFFSET 3.427654 -37.519855 -0.449580
			CHANNELS 3 Zrotation Yrotation Xrotation
			JOINT LeftFoot
			{
				OFFSET -1.359570 -39.796059 -4.369333
				CHANNELS 3 Zrotation Yrotation Xrotation
				JOINT LeftToe
				{
					OFFSET 2.635814 -5.579078 11.928840
					CHANNELS 3 Zrotation Yrotation Xrotation
					End Site
					{
						OFFSET 0.000000 0.000000 0.000000
					}
				}
			}
		}
	}
	JOINT RightUpLeg
	{
		OFFSET -6.767048 -9.052170 -0.431982
		CHANNELS 3 Zrotation Yrotation Xrotation
		JOINT RightLeg
		{
			OFFSET -3.829005 -38.256897 -0.885003
			CHANNELS 3 Zrotation Yrotation Xrotation
			JOINT RightFoot
			{
				OFFSET 1.577377 -39.841461 -4.231180
				CHANNELS 3 Zrotation Yrotation Xrotation
				JOINT RightToe
				{
					OFFSET -2.537174 -4.814398 12.334795
					CHANNELS 3 Zrotation Yrotation Xrotation
					End Site
					{
						OFFSET 0.000000 0.000000 0.000000
					}
				}
			}
		}
	}
	JOINT Spine
	{
		OFFSET -0.253288 10.896323 -2.669631
		CHANNELS 3 Zrotation Yrotation Xrotation
		JOINT Spine1
		{
			OFFSET 0.548704 13.518043 0.109247
			CHANNELS 3 Zrotation Yrotation Xrotation
			JOINT Spine2
			{
				OFFSET 0.145701 5.292222 2.542457
				CHANNELS 3 Zrotation Yrotation Xrotation
				JOINT Neck
				{
					OFFSET -0.277840 21.387037 -4.285703
					CHANNELS 3 Zrotation Yrotation Xrotation
					JOINT Head
					{
						OFFSET 0.515184 6.496960 5.134897
						CHANNELS 3 Zrotation Yrotation Xrotation
						End Site
						{
							OFFSET 0.000000 0.000000 0.000000
						}
					}
				}
				JOINT LeftShoulder
				{
					OFFSET 7.884473 12.174932 -3.408961
					CHANNELS 3 Zrotation Yrotation Xrotation
					JOINT LeftArm
					{
						OFFSET 9.097692 3.046888 -0.886815
						CHANNELS 3 Zrotation Yrotation Xrotation
						JOINT LeftForeArm
						{
							OFFSET 25.961220 -1.277207 -2.745643
							CHANNELS 3 Zrotation Yrotation Xrotation
							JOINT LeftHand
							{
								OFFSET 24.923361 0.898606 -0.117091
								CHANNELS 3 Zrotation Yrotation Xrotation
								End Site
								{
									OFFSET 0.000000 0.000000 0.000000
								}
							}
						}
					}
				}
				JOINT RightShoulder
				{
					OFFSET -8.175920 11.883285 -3.861528
					CHANNELS 3 Zrotation Yrotation Xrotation
					JOINT RightArm
					{
						OFFSET -9.601238 3.255117 -0.914307
						CHANNELS 3 Zrotation Yrotation Xrotation
						JOINT RightForeArm
						{
							OFFSET -25.374195 -1.332924 -2.140099
							CHANNELS 3 Zrotation Yrotation Xrotation
							JOINT RightHand
							{
								OFFSET -25.529810 0.777228 -0.555919
								CHANNELS 3 Zrotation Yrotation Xrotation
								End Site
								{
									OFFSET 0.000000 0.000000 0.000000
								}
							}
						}
					}
				}
			}
		}
	}
}
MOTION
Frames: 13
Frame Time: 0.033333
-0.409545 109.690155 9.080600 175.739711 32.287294 179.262123 10.177890 9.901255 7.422977 -4.087668 2.147986 9.112577 0.112638 14.853215 -19.644030 0.101230 -0.848368 -0.182942 -19.588915 -6.614371 -24.206440 -0.243548 1.183143 22.753962 12.973075 -4.836585 1.918512 3.677647 0.448773 0.273770 0.258492 -7.268318 13.636795 2.290370 -4.921971 -8.009153 0.783155 -5.612460 9.747195 -6.681306 9.396801 -1.601141 -3.055886 7.913515 -3.889174 3.068988 -16.936359 -13.173979 -60.072290 -47.071931 27.360895 -0.641935 -77.774704 16.210400 11.099683 -10.233277 -21.771514 8.771174 1.575568 -5.483270 51.999859 0.487382 20.269794 -17.843984 73.585649 -10.073634 -4.766821 6.937695 -27.052839 
-0.098213 109.420395 8.784850 175.854350 35.855566 178.807100 9.980560 10.821237 9.533282 -3.989133 2.240986 8.394409 0.084872 16.531021 -20.505712 -0.087876 -0.822897 -0.237754 -18.829248 -6.282144 -27.294191 -0.124626 0.015823 25.291772 12.575585 -4.896547 1.461143 3.792458 0.425206 0.198753 0.090611 -8.953073 14.300335 2.801021 -5.834225 -7.650585 0.733734 -6.665990 9.712055 -7.962672 11.824786 -2.204951 -4.054801 9.848544 -5.276256 5.155411 -18.366142 -14.883379 -57.470638 -51.628821 26.605309 -1.203657 -79.519444 19.400788 10.993214 -11.403699 -17.303261 9.248379 -0.248037 -5.081296 50.462400 -4.504429 20.452982 -14.418541 73.298846 -4.068834 -4.941479 7.549087 -23.787004 
0.404928 109.264114 8.752982 176.141812 39.728953 178.567300 9.888689 11.431592 11.400566 -3.848878 2.267589 7.823310 0.011318 18.457415 -20.647262 -0.277234 -0.788245 -0.280824 -17.907978 -5.832918 -30.417997 0.254869 -1.334814 28.062392 11.617525 -5.739169 0.588802 3.925305 0.403022 0.084715 -0.136926 -10.645487 15.025796 3.229100 -6.769931 -7.797120 0.731945 -7.787034 9.851828 -9.377861 14.979526 -2.833305 -5.153525 12.056708 -6.343568 7.532316 -19.351107 -16.259900 -51.602692 -55.287527 22.999087 -3.070462 -80.148223 23.163340 9.771673 -12.650857 -13.501956 8.862354 -2.197956 -4.719322 48.678017 -8.987982 20.545859 -8.156022 71.753649 5.102608 -3.503462 8.494198 -21.391789 
0.911412 109.225616 8.684742 176.894753 43.155292 178.655303 10.336123 12.009312 13.540298 -3.844381 1.787652 6.844882 -0.235999 19.428893 -20.391295 -0.487808 -0.717729 -0.229621 -16.673698 -4.978487 -33.240193 0.845957 -2.597134 31.633632 9.943089 -7.436077 -0.102388 4.227695 0.382068 -0.015324 -0.331864 -12.423494 15.613142 3.350611 -7.507731 -8.039187 0.717415 -9.001683 10.097751 -10.618178 18.152856 -3.536793 -5.894890 14.296193 -7.557704 9.862719 -20.453452 -17.067693 -45.026235 -58.521721 17.890445 -6.003348 -78.410966 26.621353 7.730445 -14.397935 -10.111598 7.430002 -3.823535 -3.604914 46.686623 -12.887904 20.289999 0.210787 67.454997 16.374359 -1.866995 9.482911 -18.939661 
2.425377 109.266663 7.786464 178.114911 45.806077 179.556844 11.366216 12.416055 15.489591 -3.476369 1.226707 6.986036 -1.287296 18.550526 -19.257222 -0.556944 -0.714098 -0.161917 -15.397251 -4.068376 -35.095895 1.569496 -4.050277 34.181047 8.442995 -8.716685 -0.873005 4.513871 0.346389 -0.037775 -0.543594 -14.082672 16.148619 3.894900 -8.383887 -8.488854 0.912086 -10.201492 10.392187 -12.303165 21.027592 -3.812058 -6.589812 17.407964 -8.424946 12.664513 -21.242013 -17.657391 -38.247422 -60.026345 11.706642 -5.145207 -77.862218 25.707075 5.987976 -14.756885 -8.395052 5.490442 -5.462179 -2.601520 44.372104 -16.441713 19.821874 4.774083 65.812950 22.652726 0.208290 10.307892 -17.176793 
4.230553 109.304031 7.535295 179.383597 48.915271 -179.559111 12.797528 12.590494 16.911561 -2.981339 0.824816 8.070467 -1.941283 17.187089 -17.471885 -0.627406 -0.574328 -0.131895 -13.972089 -3.831917 -35.882762 2.610505 -4.812974 35.014949 7.174548 -9.371855 -2.178806 4.348926 0.294921 -0.227515 -0.706223 -15.063251 15.843861 4.179561 -9.182105 -8.618868 1.065820 -11.104740 10.455751 -13.504807 22.906210 -3.781509 -6.897329 19.918220 -8.939077 13.452344 -20.166337 -17.178483 -29.408473 -59.226618 4.816808 -11.108919 -78.958421 31.248937 3.453315 -14.583299 -8.168953 4.357267 -7.883739 -1.734640 41.410925 -19.188807 19.707687 10.465702 67.194881 29.487506 4.346914 11.429528 -15.527903 
6.336434 109.345886 7.424911 -178.696617 51.604445 -178.422675 14.305820 12.456603 18.422189 -2.446172 0.091182 8.381664 -2.335699 18.270470 -15.651090 -0.692282 -0.450818 -0.003904 -12.441775 -2.931901 -36.137281 3.680744 -5.063261 36.235898 5.738047 -10.095192 -3.803484 4.214123 0.270584 -0.369372 -0.635318 -16.158714 15.566573 3.923387 -9.408295 -8.740409 1.031413 -11.494473 10.811638 -14.040863 24.384534 -3.126575 -6.868241 21.966389 -9.115545 13.650863 -18.970979 -16.208394 -25.286557 -57.503413 1.613318 -16.285349 -79.044105 35.965038 2.172137 -14.919084 -7.400764 3.113811 -9.456205 -0.469121 39.705093 -21.111831 19.508129 17.296761 66.669785 37.281989 6.068492 12.289493 -13.860909 
8.697709 109.423248 7.365701 -177.203035 53.725275 -177.818267 15.773964 11.644951 18.578719 -1.805355 -0.852277 10.854541 -2.790780 18.316552 -13.653726 -0.535921 -0.410875 -0.052134 -10.895835 -1.580441 -35.580675 4.177040 -5.116515 37.585048 4.140873 -10.632259 -5.631509 4.200152 0.256708 -0.440510 -0.760084 -16.476750 15.386655 3.728013 -9.364852 -8.609018 1.071099 -11.693824 11.088679 -14.172961 25.570632 -1.701244 -6.636635 23.314165 -9.308193 12.768073 -18.135322 -14.712997 -24.562862 -55.433199 0.863946 -17.498072 -77.750060 36.346231 1.228345 -14.982509 -7.431162 2.584822 -10.306408 0.459262 39.665939 -22.435229 18.915262 18.592986 66.138603 38.831743 6.713702 12.901535 -13.181662 
11.236753 109.578476 7.404778 -176.723034 55.854522 -178.246910 16.859828 10.640215 17.520231 -1.136540 -1.122802 15.463432 -3.069768 18.626083 -11.034935 -0.364806 -0.375518 -0.145910 -9.276558 -0.336979 -34.111315 4.448460 -4.355751 38.422510 2.654365 -10.724726 -8.003664 3.922061 0.318312 -0.573452 -0.915485 -16.147428 14.843493 3.429457 -9.217939 -8.185613 1.077979 -11.405837 11.076708 -13.783033 26.339552 -0.041135 -6.274545 23.972992 -9.008137 11.239760 -16.912026 -13.148357 -25.468824 -52.740135 1.457329 -16.587354 -76.385532 34.836835 0.219000 -14.839726 -6.783697 2.704572 -10.643634 1.178838 40.164840 -22.473218 18.130350 18.772938 65.120446 39.579627 7.462300 12.981032 -11.602655 
13.792190 109.865234 7.607744 -176.821401 57.909326 -179.965907 17.247929 9.508358 14.999767 -0.571578 -1.137524 23.022955 -2.700119 19.147962 -8.938721 -0.196760 -0.426230 -0.234683 -7.580166 0.555913 -31.908655 4.314502 -3.537881 39.512131 1.092023 -10.473198 -10.145864 3.553302 0.404085 -0.706246 -1.333017 -15.102479 14.622209 3.292788 -8.975568 -7.376325 0.949146 -10.795285 10.616152 -12.921067 26.473427 1.917773 -6.028698 24.049901 -8.384092 9.208341 -16.016934 -11.929459 -28.641287 -50.615537 3.542346 -13.834470 -73.924891 31.616524 0.483705 -14.204920 -6.321949 3.736828 -10.461520 1.464214 41.767305 -21.783093 17.365889 15.779303 63.715733 36.554740 6.667991 12.634589 -10.262601 
16.192007 110.322906 9.945031 -177.746447 59.989098 177.053023 16.717668 8.387940 10.538218 -0.534647 -0.798560 33.381661 -1.744309 19.329711 -8.608039 -0.038503 -0.631547 -0.431666 -5.619953 0.732339 -28.821555 4.129023 -3.471379 39.086583 -0.071589 -9.489589 -12.451106 3.165946 0.471360 -0.986624 -1.682470 -13.212767 14.688752 3.409993 -8.468223 -5.952928 0.688518 -9.649505 9.808152 -11.839032 25.907843 3.724994 -6.161631 23.278167 -8.092039 6.580336 -15.152863 -10.486829 -32.171884 -47.203902 5.959274 -11.748338 -72.045645 29.202370 1.319783 -14.078436 -5.564063 5.509665 -9.503247 1.634349 43.847251 -20.033442 16.387065 10.514884 60.883935 30.891542 5.356428 11.577306 -8.150830 
17.256969 110.937592 10.141988 -177.660018 61.208514 174.340923 15.685232 7.286537 4.680135 -0.789779 0.059690 44.436616 -0.256447 19.016981 -9.762790 0.245458 -0.864159 -0.499432 -4.070832 0.751954 -24.742669 3.164435 -2.386269 38.330136 -1.178973 -9.041394 -12.776257 2.778436 0.666551 -1.274428 -1.782451 -10.640632 15.886386 3.638236 -7.877946 -4.823880 0.578756 -8.543627 9.041921 -10.587087 25.456245 5.292486 -6.643576 22.307165 -7.858198 3.664530 -14.936459 -8.989758 -37.009592 -43.854352 8.513563 -8.815283 -67.925408 25.900993 1.595635 -13.601922 -4.787686 7.752647 -7.457200 1.396603 46.672008 -16.228310 14.912138 2.847306 55.166387 21.534048 3.327671 10.169951 -6.984248 
18.523592 111.707520 9.776290 -177.952988 63.109666 171.987733 13.570035 6.195407 -2.425140 -1.338044 1.229835 54.285599 0.991084 18.890954 -11.174705 0.516383 -1.053866 -0.445014 -2.986140 0.227665 -21.241686 2.460989 -1.234900 37.489667 -1.713685 -7.949046 -12.599922 2.478486 0.868143 -1.638640 -1.334651 -7.691014 16.903830 3.509640 -7.085721 -3.704739 0.459523 -7.048244 8.445542 -9.378438 23.757235 6.388399 -6.430014 21.660468 -7.431070 0.212475 -14.401630 -7.633366 -40.729273 -39.328294 10.145989 -5.470596 -62.135110 22.136035 3.423211 -12.948073 -3.320471 9.958075 -4.539716 0.913085 47.700977 -11.485332 14.073869 -0.872746 49.041025 15.532117 1.068495 8.746043 -5.689656 
